<?xml version="1.0" encoding="UTF-8" standalone="no"?>
<svg
   width="6in"
   height="6in"
   viewBox="0 0 152.4 152.4"
   version="1.1"
   id="svg8"
   xmlns="http://www.w3.org/2000/svg"
   xmlns:svg="http://www.w3.org/2000/svg"
   xmlns:rdf="http://www.w3.org/1999/02/22-rdf-syntax-ns#"
   xmlns:cc="http://creativecommons.org/ns#"
   xmlns:dc="http://purl.org/dc/elements/1.1/">
  <defs
     id="defs2" />
  <metadata
     id="metadata5">
    <rdf:RDF>
      <cc:Work
         rdf:about="">
        <dc:format>image/svg+xml</dc:format>
        <dc:type
           rdf:resource="http://purl.org/dc/dcmitype/StillImage" />
      </cc:Work>
    </rdf:RDF>
  </metadata>
  <path
     style="vector-effect:none;fill:#212326;fill-opacity:1;stroke:none;stroke-width:0.127;stroke-linecap:butt;stroke-linejoin:miter;stroke-miterlimit:4;stroke-dasharray:none;stroke-dashoffset:0;stroke-opacity:1"
     d="M 3.1249997e-8,1.0624999e-7 V 152.4 H 152.4 V 1.0624999e-7 Z M 20.31968,48.259587 h 2.53989 2.54043 2.53989 2.53989 2.5399 2.53989 2.5399 2.54042 2.53989 v 2.5399 2.540411 H 40.63989 38.1 35.55957 33.01968 30.47978 27.93989 25.4 22.85957 v 2.5399 2.53989 H 25.4 h 2.53989 2.53989 2.5399 2.53989 2.54043 2.53989 v 2.5399 h 2.53989 v 2.5399 2.54041 2.5399 2.53989 h -2.53989 v 2.5399 H 38.1 35.55957 33.01968 30.47978 27.93989 25.4 22.85957 20.31968 17.77978 v -2.5399 -2.53989 h 2.5399 2.53989 2.54043 2.53989 2.53989 2.5399 2.53989 H 38.1 v -2.5399 -2.54041 H 35.55957 33.01968 30.47978 27.93989 25.4 22.85957 20.31968 v -2.5399 h -2.5399 v -2.5399 -2.53989 -2.5399 -2.539901 -5.1e-4 h 2.5399 z m 35.560631,0 h 2.5399 2.53989 H 63.5 66.040421 v 2.5399 h 2.539899 v 2.540411 h 2.539895 v 2.5399 h 2.53989 v 2.53989 2.5399 2.5399 2.54041 2.5399 2.53989 2.5399 h -2.53989 -2.539895 v -2.5399 -2.53989 -2.5399 h -2.539899 -2.53989 -2.54043 -2.53989 -2.5399 -2.53989 v 2.5399 2.53989 2.5399 h -2.5399 -2.540421 v -2.5399 -2.53989 -2.5399 -2.54041 -2.5399 -2.5399 -2.53989 h 2.540421 v -2.5399 h 2.5399 v -2.540411 h 2.53989 z m 22.859584,0 h 2.5399 2.53989 v 2.5399 h 2.53989 v 2.540411 h 2.54043 v 2.5399 h 2.53989 2.5399 v -2.5399 h 2.53989 v -2.540411 h 2.539891 v -2.5399 h 2.539894 2.54042 v 2.5399 2.540411 2.5399 2.53989 2.5399 2.5399 2.54041 2.5399 2.53989 2.5399 H 101.6 99.059576 v -2.5399 -2.53989 -2.5399 -2.54041 -2.5399 -2.5399 h -2.539891 v 2.5399 h -2.53989 v 2.5399 h -2.5399 -2.53989 v -2.5399 h -2.54043 v -2.5399 h -2.53989 v 2.5399 2.5399 2.54041 2.5399 2.53989 2.5399 h -2.53989 -2.5399 v -2.5399 -2.53989 -2.5399 -2.54041 -2.5399 -2.5399 -2.53989 -2.5399 -2.540411 z m 30.479785,0 h 2.53989 2.5399 5.3e-4 v 2.5399 h 2.53989 v 2.540411 h 2.5399 v 2.5399 h 2.53989 2.53989 v -2.5399 H 127 v -2.540411 h 2.53989 v -2.5399 h 2.5399 2.53989 v 2.54041 2.539901 2.5399 2.53989 2.5399 2.54041 2.5399 2.5399 2.53989 2.5399 h -2.53989 -2.5399 v -2.5399 -2.53989 -2.5399 -2.54041 -2.5399 -2.5399 H 127 v 2.5399 h -2.54043 v 2.5399 h -2.53989 -2.53989 v -2.5399 h -2.5399 v -2.5399 H 114.3 v 2.5399 2.5399 2.54041 2.5399 2.53989 2.5399 h -2.54043 -2.53989 v -2.5399 -2.53989 -2.5399 -2.54041 -2.5399 -2.5399 -2.53989 -2.5399 -2.540411 z m -50.799469,5.08031 v 2.5399 h -2.5399 v 2.53989 h -2.53989 v 2.5399 h 2.53989 2.5399 2.53989 2.54043 2.53989 2.539899 v -2.5399 h -2.539899 v -2.53989 h -2.53989 v -2.5399 h -2.54043 z m -40.6399,25.4 h 2.5399 2.53989 2.54043 2.53989 2.539889 2.5399 2.53989 2.54043 v 2.5399 h 2.53989 v 2.53989 h 2.53989 v 2.5399 2.54041 2.5399 2.5399 2.53989 2.5399 h -2.53989 v 2.539903 5.1e-4 h -2.53989 v 2.5399 H 38.1 h -2.5399 -2.53989 -2.5399 -2.539889 -2.53989 -5.3e-4 -2.5399 -2.53989 -2.5399 v -2.5399 -2.540412 -2.5399 -2.53989 -2.5399 -2.539901 -2.540409 -2.5399 -2.53989 z m 30.479789,0 h 2.540421 2.5399 v 17.77979 h 2.53989 v 2.5399 H 68.58032 v -20.31969 h 2.539895 2.53989 V 104.1399 h -2.53989 -2.539894 -2.5399 -2.54042 -2.5399 -2.53989 -2.5399 -2.53989 V 101.6 h -2.5399 V 99.059587 H 48.2601 v -2.5399 -2.53989 -2.5399 -2.54041 -2.5399 -2.5399 -2.53989 z m -25.399999,5.07979 v 2.5399 2.5399 2.54041 2.5399 2.53989 2.5399 h 2.54043 2.53989 2.539889 2.5399 2.53989 v -2.5399 h 2.54043 v -2.53989 -2.5399 -2.54041 -2.5399 H 35.5601 v -2.5399 h -2.53989 -2.5399 -2.539889 -2.53989 z m 55.879793,15.2399 h 2.539901 2.539889 v 2.539903 5.1e-4 2.5399 H 81.279795 78.739894 V 101.6 Z"
     id="samm-logo" />
</svg>
