<svg width="6in" height="6in" viewBox="0 0 152.4 152.4" xmlns="http://www.w3.org/2000/svg"><path style="vector-effect:none;fill:#212326;fill-opacity:1;stroke:none;stroke-width:.127;stroke-linecap:butt;stroke-linejoin:miter;stroke-miterlimit:4;stroke-dasharray:none;stroke-dashoffset:0;stroke-opacity:1" d="M0 0v152.4h152.4V0zm20.32 48.26H43.18v5.08H22.86v5.08H40.64v2.54h2.54v10.16h-2.54v2.54H17.78v-5.08H38.1V63.5H20.32v-2.54h-2.54V50.8h2.54zm35.56 0h10.16v2.54h2.54v2.54h2.54v2.54h2.54V73.66h-5.08v-7.62H53.34v7.62h-5.08V55.88h2.54v-2.54h2.54V50.8h2.54zm22.86 0h5.08v2.54h2.54v2.54h2.54v2.54h5.08v-2.54h2.54V50.8h2.54v-2.54h5.08V73.66h-5.08V58.42h-2.54v2.54h-2.54v2.54H88.9v-2.54h-2.54v-2.54h-2.54V73.66h-5.08V50.8zm30.48 0h5.08v2.54h2.54v2.54h2.54v2.54h5.08v-2.54H127V50.8h2.54v-2.54h5.08V73.66h-5.08V58.42H127v2.54h-2.54v2.54h-5.08v-2.54h-2.54v-2.54h-2.54V73.66h-5.08V50.8zm-50.8 5.08v2.54h-2.54v2.54h-2.54v2.54H68.58v-2.54h-2.54v-2.54H63.5v-2.54h-2.54zm-40.64 25.4H38.1v2.54h2.54v2.54h2.54V99.06h-2.54v2.54H38.1v2.54H17.78V81.28zm30.48 0h5.08v17.78h2.54v2.54h12.7V78.74h5.08v25.4H53.34v-2.54H50.8v-2.54h-2.54V81.28zm-25.4 5.08V99.06h12.7v-2.54h2.54V86.36h-2.54v-2.54H25.4zm55.88 15.24h5.08v5.08h-5.08v-2.54z"/></svg>